<svg width="800" height="500" xmlns="http://www.w3.org/2000/svg">
 <g id="Layer_1">
  <title>Layer 1</title>
  <line stroke-linecap="round" id="svg_32" y2="571" x2="629" y1="571" x1="630" stroke="#bf0000" fill="none"/>
  <path d="m548,320.46729c1,0 1.29291,0.29291 2,1c0.70709,0.70709 0.29291,1.29291 1,2c0.70709,0.70709 2.29291,-0.70709 3,0c0.70709,0.70709 1.29291,0.29291 2,1c0.70709,0.70709 0.69342,1.4588 2,2c0.92389,0.38269 1.29291,0.29291 2,1c0.70709,0.70709 1.29291,0.29291 2,1c0.70709,0.70709 0.29291,1.29291 1,2c0.70709,0.70709 1,1 2,1c1,0 1.29291,0.29291 2,1c0.70709,0.70709 2.29291,-0.70709 3,0c0.70709,0.70709 1,1 2,1c1,0 2.29291,0.29291 3,1c0.70709,0.70709 1,1 2,1c1,0 2,0 3,0c1,0 2,0 3,0c1,0 2,1 3,1c1,0 2,0 3,0c1,0 2,0 3,0c1,0 3,0 4,0c1,0 2,0 3,0c1,0 2,0 3,0c1,0 2,0 3,0c1,0 2,0 3,0c1,0 2,0 3,0c1,0 2.29291,0.70709 3,0c0.70709,-0.70709 1.29291,-0.29291 2,-1c0.70709,-0.70709 1.07611,-0.61731 2,-1c1.30658,-0.5412 2.29291,-0.29291 3,-1c0.70709,-0.70709 0.29291,-1.29291 1,-2c0.70709,-0.70709 2,0 2,-1c0,-1 1.4588,-0.69345 2,-2c0.38269,-0.92389 0.29291,-1.29291 1,-2c0.70709,-0.70709 1.29291,-1.29291 2,-2c0.70709,-0.70709 0.69342,-1.4588 2,-2c0.92389,-0.38269 0.29291,-1.29291 1,-2c0.70709,-0.70709 2,0 3,0c1,0 2,0 3,0c1,0 2,0 3,0c1,0 1,-1 2,-1c1,0 1.29291,0.29291 2,1c0.70709,0.70709 1,1 1,2c0,1 0,2 1,2l0,1" id="svg_42" stroke="#00bf00" fill="none"/>
   </g>
</svg>
