<svg width="800" height="500" xmlns="http://www.w3.org/2000/svg">
 <g id="Layer_1">
  <title>Layer 1</title>
  <line stroke-linecap="round" id="svg_32" y2="571" x2="629" y1="571" x1="630" stroke="#bf0000" fill="none"/>
  <path d="m120,139c1,0 2.29289,0.70711 3,0c0.70711,-0.70711 1,-1 2,-1c1,0 2,0 3,0c1,0 2,0 3,0c1,0 2,0 4,0l1,0l0,1l1,0" id="svg_33" stroke="#bf0000" fill="none"/>
  <path d="m430,208c0,0 1,0 2,0c1,0 1.29291,0.29289 2,1c0.70709,0.70711 1.82443,0.09789 3,2c0.52573,0.85065 1.29291,0.29289 2,1c0.70709,0.70711 1.4588,0.69344 2,2c0.38269,0.92387 0.29291,1.29289 1,2c0.70709,0.70711 2.4588,0.69344 3,2c0.38269,0.92387 0.29291,1.29289 1,2c0.70709,0.70711 1.29291,0.29289 2,1c0.70709,0.70711 1.29291,0.29289 2,1c0.70709,0.70711 0.29291,1.29289 1,2c0.70709,0.70711 0,2 0,3c0,1 0.29291,1.29289 1,2c0.70709,0.70711 1,1 1,2c0,1 -0.22977,2.02675 0,3c0.51373,2.17625 1,3 1,4c0,1 0,2 0,3c0,1 -0.38269,3.07613 0,4c0.5412,1.30656 1,3 1,4c0,1 2,2 2,3c0,1 -0.30655,2.4588 1,3c0.92389,0.38269 0.29291,1.29291 1,2c0.70709,0.70709 1.29291,0.29291 2,1c0.70709,0.70709 1.69345,0.4588 3,1c0.92389,0.38269 2,0 3,0c1,0 2.07611,-0.38269 3,0c1.30655,0.5412 1.69345,1.4588 3,2c0.92389,0.38269 2.15225,-0.76538 4,0c1.30655,0.5412 3.0535,0.5405 5,1c2.17624,0.51373 3.69345,1.4588 5,2c0.92389,0.38269 1.69345,0.4588 3,1c0.92389,0.38269 1.69345,0.4588 3,1c0.92389,0.38269 2.29291,0.29291 3,1c0.70709,0.70709 0.61731,1.07611 1,2c0.5412,1.30655 2,1 2,2c0,1 0.29291,1.29291 1,2c0.70709,0.70709 0.29291,1.29291 1,2c1.41422,1.41422 -0.70709,3.29291 0,4c0.70709,0.70709 0.61731,2.07611 1,3c0.5412,1.30655 1,2 1,4c0,1 1,2 1,4c0,1 0.4588,1.69345 1,3c0.38269,0.92389 0.4588,1.69345 1,3c0.76538,1.84775 1,2 1,3c0,1 0.4588,2.69345 1,4c0.38269,0.92389 1,1 1,2c0,1 0.29291,1.29291 1,2c0.70709,0.70709 2.29291,-0.70709 3,0c0.70709,0.70709 1,1 2,1c1,0 2,0 3,0c1,0 2,0 3,0c1,0 2,0 3,0c1,0 2,0 3,0c1,0 2,0 3,0c1,0 2.29291,-0.70709 3,0c0.70709,0.70709 0.07611,1.61731 1,2c1.30658,0.5412 1.29291,1.29291 2,2c0.70709,0.70709 1.29291,0.29291 2,1c0.70709,0.70709 1,1 1,2c0,1 0.29291,1.29291 1,2c0.70709,0.70709 1,1 2,1c1,0 2.29291,0.29291 3,1c0.70709,0.70709 1,1 2,1c1,0 1,1 2,1c1,0 2,0 3,0c1,0 0,0 -1,0l0,-1l-1,0" id="svg_39" stroke="#bf0000" fill="none"/>
  <path d="m548,320.46729c1,0 1.29291,0.29291 2,1c0.70709,0.70709 0.29291,1.29291 1,2c0.70709,0.70709 2.29291,-0.70709 3,0c0.70709,0.70709 1.29291,0.29291 2,1c0.70709,0.70709 0.69342,1.4588 2,2c0.92389,0.38269 1.29291,0.29291 2,1c0.70709,0.70709 1.29291,0.29291 2,1c0.70709,0.70709 0.29291,1.29291 1,2c0.70709,0.70709 1,1 2,1c1,0 1.29291,0.29291 2,1c0.70709,0.70709 2.29291,-0.70709 3,0c0.70709,0.70709 1,1 2,1c1,0 2.29291,0.29291 3,1c0.70709,0.70709 1,1 2,1c1,0 2,0 3,0c1,0 2,0 3,0c1,0 2,1 3,1c1,0 2,0 3,0c1,0 2,0 3,0c1,0 3,0 4,0c1,0 2,0 3,0c1,0 2,0 3,0c1,0 2,0 3,0c1,0 2,0 3,0c1,0 2,0 3,0c1,0 2.29291,0.70709 3,0c0.70709,-0.70709 1.29291,-0.29291 2,-1c0.70709,-0.70709 1.07611,-0.61731 2,-1c1.30658,-0.5412 2.29291,-0.29291 3,-1c0.70709,-0.70709 0.29291,-1.29291 1,-2c0.70709,-0.70709 2,0 2,-1c0,-1 1.4588,-0.69345 2,-2c0.38269,-0.92389 0.29291,-1.29291 1,-2c0.70709,-0.70709 1.29291,-1.29291 2,-2c0.70709,-0.70709 0.69342,-1.4588 2,-2c0.92389,-0.38269 0.29291,-1.29291 1,-2c0.70709,-0.70709 2,0 3,0c1,0 2,0 3,0c1,0 2,0 3,0c1,0 1,-1 2,-1c1,0 1.29291,0.29291 2,1c0.70709,0.70709 1,1 1,2c0,1 0,2 1,2l0,1" id="svg_42" stroke="#bf0000" fill="none"/>
  <path d="m136,137c0,0 1.29289,-0.70711 2,0c0.70711,0.70711 1,1 2,1c1,0 2,2 3,2c1,0 1,1 2,1c1,0 1.29289,0.29289 2,1c0.70711,0.70711 1.29289,0.29289 2,1c0.70711,0.70711 1.29289,0.29289 2,1c0.70711,0.70711 0.29289,1.29289 1,2c0.70711,0.70711 2.29289,1.29289 3,2c0.70711,0.70711 0,2 1,2c1,0 0.29289,1.29289 1,2c0.70711,0.70711 1.29289,0.29289 2,1c0.70711,0.70711 1.29289,0.29289 2,1c0.70711,0.70711 0,2 1,2c1,0 1.29289,0.29289 2,1c0.70711,0.70711 0.29289,1.29289 1,2c0.70711,0.70711 2,1 3,1c1,0 1.29289,0.29289 2,1c0.70711,0.70711 1,1 2,1c1,0 2.07613,-0.38269 3,0c1.30656,0.5412 2.29289,0.29289 3,1c0.70711,0.70711 1,1 2,1c1,0 2,0 3,0c1,0 2,0 3,0c1,0 2,0 3,0c1,0 2,0 3,0c1,0 2,0 3,0c1,0 1,-1 2,-1c1,0 2.29289,0.70711 3,0c0.70711,-0.70711 1.29289,-0.29289 2,-1c0.70711,-0.70711 1.29289,-0.29289 2,-1c0.70711,-0.70711 0.69344,-1.4588 2,-2c0.92387,-0.38269 1.29289,-0.29289 2,-1c0.70711,-0.70711 1,-1 1,-2c0,-1 1,-1 1,-2c0,-1 1.29289,-0.29289 2,-1c0.70711,-0.70711 0.61731,-1.07613 1,-2c0.5412,-1.30656 1.29289,-1.29289 2,-2c0.70711,-0.70711 2,0 2,-1c0,-1 0.29289,-1.29289 1,-2c0.70711,-0.70711 1,-1 2,-1c1,0 1.29289,-0.29289 2,-1c0.70711,-0.70711 2,-1 3,-1c1,0 1.29289,-0.29289 2,-1c0.70711,-0.70711 1.29289,-0.29289 2,-1c0.70711,-0.70711 2,0 3,0c1,0 1.29289,-0.29289 2,-1c0.70711,-0.70711 2.29289,-0.29289 3,-1c0.70711,-0.70711 1,-1 2,-1c1,0 2,0 3,0c1,0 3,0 4,0c1,0 2,0 3,0c1,0 2,0 3,0c2,0 3,0 4,0c1,0 2,0 3,0c1,0 2.07611,0.38269 3,0c1.30655,-0.5412 3,-1 5,-1c1,0 3,0 4,0c1,0 1.29291,-0.29289 2,-1c0.70709,-0.70711 2,0 3,0c1,0 2,0 3,0c1,0 2,-1 4,-1c1,0 2,0 3,0c1,0 1.29291,0.29289 2,1c0.70709,0.70711 2.29291,0.29289 3,1c0.70709,0.70711 1.4588,1.69344 2,3c0.38269,0.92387 0.29291,1.29289 1,2c0.70709,0.70711 0.29291,1.29289 1,2c0.70709,0.70711 0.69345,1.4588 2,2c0.92389,0.38269 1.29291,0.29289 2,1c0.70709,0.70711 1,1 2,1c1,0 1.69345,0.4588 3,1c0.92389,0.38269 2,0 3,0c1,0 1.69345,0.4588 3,1c0.92389,0.38269 2,0 3,0c1,0 2,0 3,0c1,0 2,0 3,0c1,0 2,0 3,0c1,0 2,0 3,0c1,0 2,0 3,0c1,0 1.69345,-0.4588 3,-1c0.92389,-0.38269 2.02676,0.22975 3,0c2.17624,-0.51375 3,-1 4,-1c1,0 1,-1 2,-1c1,0 1.29291,-0.29289 2,-1c0.70709,-0.70711 2.29291,0.70711 3,0c0.70709,-0.70711 1,-1 2,-1c1,0 2.29291,0.70711 3,0c0.70709,-0.70711 0.29291,-1.29289 1,-2c0.70709,-0.70711 1.29291,-0.29289 2,-1c0.70709,-0.70711 2,0 4,0c1,0 1,-1 2,-1c1,0 1.0979,-0.82443 3,-2c0.85065,-0.52573 1.69345,-0.4588 3,-1c0.92389,-0.38269 2.29291,0.70711 3,0c0.70709,-0.70711 1,-1 2,-1c1,0 2,-1 3,-1c1,0 2,0 3,0c1,0 1,-1 2,-1c1,0 2.07611,0.38269 3,0c1.30655,-0.5412 2,-1 3,-1l1,0l1,0l0,-1" id="svg_46" stroke="#bf0000" fill="none"/>
  <path d="m385.30915,133.65458c0,0 1,0 2,0c1,0 2,0 3,0c1,0 1.29291,0.29289 2,1c0.70709,0.70711 0,2 0,3c0,1 0,2 0,3c0,1 0,2 0,3c0,1 0,2 0,3c0,1 -0.29291,1.29289 -1,2c-0.70709,0.70711 0,2 0,3c0,1 0,2 0,3c0,1 0,2 0,3c0,1 0,2 0,3c0,1 0.29291,1.29289 1,2c0.70709,0.70711 -0.70709,2.29289 0,3c0.70709,0.70711 1.29291,0.29289 2,1c0.70709,0.70711 1.4588,1.30656 2,0c0.38269,-0.92387 0.69345,-1.4588 2,-2c0.92389,-0.38269 0.29291,-1.29289 1,-2c0.70709,-0.70711 1,-1 2,-1c1,0 1.29291,-1.70711 2,-1c0.70709,0.70711 0.70709,2.29289 0,3c-0.70709,0.70711 -1.29291,1.29289 -2,2c-0.70709,0.70711 -1.29291,0.29289 -2,1c-0.70709,0.70711 -1.4588,0.69344 -2,2c-0.38269,0.92387 -0.29291,1.29289 -1,2c-0.70709,0.70711 -1,1 -2,1c-1,0 -1.4588,0.69344 -2,2c-0.38269,0.92387 -1,1 -1,2c0,1 0,2 0,3c0,1 0,2 0,3c0,1 0,2 0,3c0,1 1,1 1,2c0,1 0.29291,1.29289 1,2c0.70709,0.70711 1,1 2,1c1,0 2,0 3,0c1,0 2,0 3,0c1,0 2,0 3,0c1,0 2,0 3,0c1,0 1.29291,-0.29289 2,-1c0.70709,-0.70711 2.29291,0.70711 3,0c0.70709,-0.70711 0.07611,-1.61731 1,-2c1.30655,-0.5412 1,-2 2,-2c1,0 1.07611,-0.61731 2,-1c1.30655,-0.5412 2,-1 3,-1c1,0 2,0 3,0c1,0 2.29291,-0.70711 3,0c0.70709,0.70711 1.29291,0.29289 2,1c0.70709,0.70711 0.29291,1.29289 1,2c0.70709,0.70711 1,2 1,3c0,1 1,1 1,2c0,1 0,2 0,3c0,1 0,2 0,3c0,1 -0.29291,2.29289 -1,3c-0.70709,0.70711 -1,1 -1,2c0,1 0,2 0,3l0,1" id="svg_47" stroke="#bf0000" fill="none"/>
  <path d="m429.53369,205.44041c0,0.17271 0.12213,0.39601 0,0.51813c-0.12213,0.12213 -0.0506,0.2233 -0.17273,0.34543c-0.12213,0.12212 -0.1727,0.17271 -0.1727,0.34543c0,0.17271 -0.12213,0.396 0,0.51813c0.12213,0.12212 0.1727,0.17271 0.1727,0.34543c0,0.17271 0.17273,0.17271 0.17273,0.34543c0,0.1727 0,0.34541 0.1727,0.34541l0.1727,0" id="svg_49" stroke="#bf0000" fill="none"/>
 </g>
</svg>
