<svg width="800" height="500" xmlns="http://www.w3.org/2000/svg">
 <g id="Layer_1">
  <title>Layer 1</title>
  <line stroke-linecap="round" id="svg_32" y2="571" x2="629" y1="571" x1="630" stroke="#bf0000" fill="none"/>
  <path d="m120,139c1,0 2.29289,0.70711 3,0c0.70711,-0.70711 1,-1 2,-1c1,0 2,0 3,0c1,0 2,0 3,0c1,0 2,0 4,0l1,0l0,1l1,0" id="svg_33" stroke="#00bf00" fill="none"/>
  <path d="m136,137c0,0 1.29289,-0.70711 2,0c0.70711,0.70711 1,1 2,1c1,0 2,2 3,2c1,0 1,1 2,1c1,0 1.29289,0.29289 2,1c0.70711,0.70711 1.29289,0.29289 2,1c0.70711,0.70711 1.29289,0.29289 2,1c0.70711,0.70711 0.29289,1.29289 1,2c0.70711,0.70711 2.29289,1.29289 3,2c0.70711,0.70711 0,2 1,2c1,0 0.29289,1.29289 1,2c0.70711,0.70711 1.29289,0.29289 2,1c0.70711,0.70711 1.29289,0.29289 2,1c0.70711,0.70711 0,2 1,2c1,0 1.29289,0.29289 2,1c0.70711,0.70711 0.29289,1.29289 1,2c0.70711,0.70711 2,1 3,1c1,0 1.29289,0.29289 2,1c0.70711,0.70711 1,1 2,1c1,0 2.07613,-0.38269 3,0c1.30656,0.5412 2.29289,0.29289 3,1c0.70711,0.70711 1,1 2,1c1,0 2,0 3,0c1,0 2,0 3,0c1,0 2,0 3,0c1,0 2,0 3,0c1,0 2,0 3,0c1,0 1,-1 2,-1c1,0 2.29289,0.70711 3,0c0.70711,-0.70711 1.29289,-0.29289 2,-1c0.70711,-0.70711 1.29289,-0.29289 2,-1c0.70711,-0.70711 0.69344,-1.4588 2,-2c0.92387,-0.38269 1.29289,-0.29289 2,-1c0.70711,-0.70711 1,-1 1,-2c0,-1 1,-1 1,-2c0,-1 1.29289,-0.29289 2,-1c0.70711,-0.70711 0.61731,-1.07613 1,-2c0.5412,-1.30656 1.29289,-1.29289 2,-2c0.70711,-0.70711 2,0 2,-1c0,-1 0.29289,-1.29289 1,-2c0.70711,-0.70711 1,-1 2,-1c1,0 1.29289,-0.29289 2,-1c0.70711,-0.70711 2,-1 3,-1c1,0 1.29289,-0.29289 2,-1c0.70711,-0.70711 1.29289,-0.29289 2,-1c0.70711,-0.70711 2,0 3,0c1,0 1.29289,-0.29289 2,-1c0.70711,-0.70711 2.29289,-0.29289 3,-1c0.70711,-0.70711 1,-1 2,-1c1,0 2,0 3,0c1,0 3,0 4,0c1,0 2,0 3,0c1,0 2,0 3,0c2,0 3,0 4,0c1,0 2,0 3,0c1,0 2.07611,0.38269 3,0c1.30655,-0.5412 3,-1 5,-1c1,0 3,0 4,0c1,0 1.29291,-0.29289 2,-1c0.70709,-0.70711 2,0 3,0c1,0 2,0 3,0c1,0 2,-1 4,-1c1,0 2,0 3,0c1,0 1.29291,0.29289 2,1c0.70709,0.70711 2.29291,0.29289 3,1c0.70709,0.70711 1.4588,1.69344 2,3c0.38269,0.92387 0.29291,1.29289 1,2c0.70709,0.70711 0.29291,1.29289 1,2c0.70709,0.70711 0.69345,1.4588 2,2c0.92389,0.38269 1.29291,0.29289 2,1c0.70709,0.70711 1,1 2,1c1,0 1.69345,0.4588 3,1c0.92389,0.38269 2,0 3,0c1,0 1.69345,0.4588 3,1c0.92389,0.38269 2,0 3,0c1,0 2,0 3,0c1,0 2,0 3,0c1,0 2,0 3,0c1,0 2,0 3,0c1,0 2,0 3,0c1,0 1.69345,-0.4588 3,-1c0.92389,-0.38269 2.02676,0.22975 3,0c2.17624,-0.51375 3,-1 4,-1c1,0 1,-1 2,-1c1,0 1.29291,-0.29289 2,-1c0.70709,-0.70711 2.29291,0.70711 3,0c0.70709,-0.70711 1,-1 2,-1c1,0 2.29291,0.70711 3,0c0.70709,-0.70711 0.29291,-1.29289 1,-2c0.70709,-0.70711 1.29291,-0.29289 2,-1c0.70709,-0.70711 2,0 4,0c1,0 1,-1 2,-1c1,0 1.0979,-0.82443 3,-2c0.85065,-0.52573 1.69345,-0.4588 3,-1c0.92389,-0.38269 2.29291,0.70711 3,0c0.70709,-0.70711 1,-1 2,-1c1,0 2,-1 3,-1c1,0 2,0 3,0c1,0 1,-1 2,-1c1,0 2.07611,0.38269 3,0c1.30655,-0.5412 2,-1 3,-1l1,0l1,0l0,-1" id="svg_46" stroke="#00bf00" fill="none"/>
 </g>
</svg>
