<svg width="800" height="500" xmlns="http://www.w3.org/2000/svg">
 <g id="Layer_1">
  <title>Layer 1</title>
  <polyline stroke-linecap="round" id="svg_4" points="345.36647449045887,275.8213618882924 346.36647449045887,275.8213618882924 " stroke="#0000bf" fill="none"/>
  <path d="m446.36649,174.82137c0,0 1,0 2,0c0,0 1,0 2,0c1,0 2,0 3,0c1,0 2,0 3,0c1,0 2,0 2,0c1,0 2,0 3,0c1,0 2.29291,-0.70711 3,0c0.70709,0.70711 1.4588,1.69344 2,3c0.38269,0.92387 0.29291,1.29289 1,2c0.70709,0.70711 0.29291,0.29289 1,1c0.70709,0.70711 1.07611,0.61731 2,1c1.30655,0.5412 1,2 2,2c1,0 1,1 1,1c0,1 0,2 0,3c0,1 -0.30655,2.4588 1,3c0.92389,0.38269 1.07611,0.61731 2,1c1.30655,0.5412 1,2 2,2c0,0 0,1 1,1c0,0 0,1 0,2c0,1 0.70709,2.29289 0,3c-0.70709,0.70711 -1,1 -1,2c0,0 -0.4588,0.69344 -1,2c-0.38269,0.92387 -1,1 -1,2c0,0 -1,1 -1,2c0,1 0,2 0,3c0,1 0.70709,2.29289 0,3c-0.70709,0.70711 -1,1 -1,2c0,0 0,1 0,2c0,1 0,2 0,3c0,1 -0.70709,2.29289 0,3c0.70709,0.70711 1,1 1,2c0,0 0,1 0,2c0,1 -0.29291,1.29289 -1,2c-0.70709,0.70711 -0.29291,1.29289 -1,2c-0.70709,0.70711 -1,1 -1,2c0,1 0,2 0,2c0,1 0,2 0,3c0,1 0,2 0,3c0,1 0.29291,1.29289 1,2c0.70709,0.70711 0,2 0,2c0,1 -0.4588,1.69344 -1,3c-0.38269,0.92387 -1,1 -1,2c0,1 0,2 0,3c0,1 0,2 0,2c0,0.99998 0,1.99998 0,2.99998c0,1 0.29291,1.29291 1,2c0.70709,0.70709 1,2 1,3c0,1 1,2 1,2c0,2 0,3 0,4c0,1 -0.29291,1.29291 -1,2c-0.70709,0.70709 -0.4588,1.69345 -1,3c-0.38269,0.92389 0,1 0,2c0,1 0,2 0,3c0,1 -0.29291,1.29291 -1,2c-0.70709,0.70709 -1,2 -1,3c0,1 0,1 0,2c0,1 0,2 0,3c0,1 -1.4588,0.69345 -2,2c-0.38269,0.92389 0,2 0,3c0,0 0,1 0,1c0,1 -1,1 -1,2c0,1 0,2 0,3c0,1 -0.29291,1.29291 -1,2c-0.70709,0.70709 -1.4588,0.69345 -2,2c-0.38269,0.92389 0,1 1,1l1,0" id="svg_6" stroke="#00bf00" fill="none"/>
  <path d="m465.36649,305.82135c0,0 0,0 0,1c0,1 -1,1 -2,1c-1,0 -2.29291,0.70709 -3,0c-0.70709,-0.70709 -1.29291,-0.29291 -2,-1c-0.70709,-0.70709 0,-1 -1,-1c0,0 -1,0 -1,-1c0,-1 -1,-1 -1,-2c0,-1 -1,-1 -1,-2c0,-1 -0.29291,-1.29291 -1,-2c-0.70709,-0.70709 -0.29291,-1.29291 -1,-2c-0.70709,-0.70709 -2,0 -2,-1c0,0 -1,0 -2,0c0,0 -0.29291,-0.29291 -1,-1c-0.70709,-0.70709 -0.69345,-1.4588 -2,-2c-0.92389,-0.38269 -0.29291,-1.29291 -1,-2c-1.41422,-1.41422 -3.29291,0.70709 -4,0c-0.70709,-0.70709 -1.29291,-0.29291 -2,-1c-0.70709,-0.70709 0,-1 -1,-1c-1,0 -1,-1 -2,-1c-1,0 -2,0 -3,0c-1,0 -1.29291,-0.29291 -2,-1c-0.70709,-0.70709 -1,-1 -1,-1c-1,0 -1,-1 -1,-1c0,-1 -1,-1 -2,-1c-1,0 -2,0 -3,0c-1,0 -2,0 -3,0c-1,0 -2,0 -2,0c-1,0 -2,0 -3,0c-1,0 -2,0 -3,0c-1,0 -2,0 -3,0c-1,0 -1,0 -2,0c-1,0 -2,0 -3,0c-1,0 -2,0 -3,0c-1,0 -2,0 -3,0c0,0 -1,0 -2,0c-1,0 -2,0 -3,0c-1,0 -1.29291,-0.29291 -2,-1c-0.70709,-0.70709 -2,0 -3,0c0,0 -2,0 -3,0c-1,0 -3,0 -4,0c-1,0 -2,0 -3,0c0,0 0,-1 -1,-1c-1,0 -1.29291,-0.29291 -2,-1c-0.70709,-0.70709 -2.29291,0.70709 -3,0c-0.70709,-0.70709 -1,-1 -2,-1c-1,0 -2,0 -2,0c-1,0 -2,0 -3,0c-1,0 -2.29291,0.70709 -3,0c-0.70709,-0.70709 -1,-1 -2,-1c-1,0 -2,0 -2,-1c0,0 -1.29291,0.70709 -2,0c-0.70709,-0.70709 -1,-1 -2,-1c-1,0 -1.29291,-0.29291 -2,-1c-0.70709,-0.70709 -2,0 -3,0c-1,0 -1,0 -2,0l-1,0l-1,0l-1,0" id="svg_21" stroke="#00bf00" fill="none"/>
 </g>
</svg>
