<svg width="800" height="500" xmlns="http://www.w3.org/2000/svg">
 <g id="Layer_1">
  <title>Layer 1</title>
  <polyline stroke-linecap="round" id="svg_4" points="345.36647449045887,275.8213618882924 346.36647449045887,275.8213618882924 " stroke="#0000bf" fill="none"/>
  <path d="m446.36649,174.82137c0,0 1,0 2,0c0,0 1,0 2,0c1,0 2,0 3,0c1,0 2,0 3,0c1,0 2,0 2,0c1,0 2,0 3,0c1,0 2.29291,-0.70711 3,0c0.70709,0.70711 1.4588,1.69344 2,3c0.38269,0.92387 0.29291,1.29289 1,2c0.70709,0.70711 0.29291,0.29289 1,1c0.70709,0.70711 1.07611,0.61731 2,1c1.30655,0.5412 1,2 2,2c1,0 1,1 1,1c0,1 0,2 0,3c0,1 -0.30655,2.4588 1,3c0.92389,0.38269 1.07611,0.61731 2,1c1.30655,0.5412 1,2 2,2c0,0 0,1 1,1c0,0 0,1 0,2c0,1 0.70709,2.29289 0,3c-0.70709,0.70711 -1,1 -1,2c0,0 -0.4588,0.69344 -1,2c-0.38269,0.92387 -1,1 -1,2c0,0 -1,1 -1,2c0,1 0,2 0,3c0,1 0.70709,2.29289 0,3c-0.70709,0.70711 -1,1 -1,2c0,0 0,1 0,2c0,1 0,2 0,3c0,1 -0.70709,2.29289 0,3c0.70709,0.70711 1,1 1,2c0,0 0,1 0,2c0,1 -0.29291,1.29289 -1,2c-0.70709,0.70711 -0.29291,1.29289 -1,2c-0.70709,0.70711 -1,1 -1,2c0,1 0,2 0,2c0,1 0,2 0,3c0,1 0,2 0,3c0,1 0.29291,1.29289 1,2c0.70709,0.70711 0,2 0,2c0,1 -0.4588,1.69344 -1,3c-0.38269,0.92387 -1,1 -1,2c0,1 0,2 0,3c0,1 0,2 0,2c0,0.99998 0,1.99998 0,2.99998c0,1 0.29291,1.29291 1,2c0.70709,0.70709 1,2 1,3c0,1 1,2 1,2c0,2 0,3 0,4c0,1 -0.29291,1.29291 -1,2c-0.70709,0.70709 -0.4588,1.69345 -1,3c-0.38269,0.92389 0,1 0,2c0,1 0,2 0,3c0,1 -0.29291,1.29291 -1,2c-0.70709,0.70709 -1,2 -1,3c0,1 0,1 0,2c0,1 0,2 0,3c0,1 -1.4588,0.69345 -2,2c-0.38269,0.92389 0,2 0,3c0,0 0,1 0,1c0,1 -1,1 -1,2c0,1 0,2 0,3c0,1 -0.29291,1.29291 -1,2c-0.70709,0.70709 -1.4588,0.69345 -2,2c-0.38269,0.92389 0,1 1,1l1,0" id="svg_6" stroke="#0000bf" fill="none"/>
  <path d="m465.36649,305.82135c0,0 0,0 0,1c0,1 -1,1 -2,1c-1,0 -2.29291,0.70709 -3,0c-0.70709,-0.70709 -1.29291,-0.29291 -2,-1c-0.70709,-0.70709 0,-1 -1,-1c0,0 -1,0 -1,-1c0,-1 -1,-1 -1,-2c0,-1 -1,-1 -1,-2c0,-1 -0.29291,-1.29291 -1,-2c-0.70709,-0.70709 -0.29291,-1.29291 -1,-2c-0.70709,-0.70709 -2,0 -2,-1c0,0 -1,0 -2,0c0,0 -0.29291,-0.29291 -1,-1c-0.70709,-0.70709 -0.69345,-1.4588 -2,-2c-0.92389,-0.38269 -0.29291,-1.29291 -1,-2c-1.41422,-1.41422 -3.29291,0.70709 -4,0c-0.70709,-0.70709 -1.29291,-0.29291 -2,-1c-0.70709,-0.70709 0,-1 -1,-1c-1,0 -1,-1 -2,-1c-1,0 -2,0 -3,0c-1,0 -1.29291,-0.29291 -2,-1c-0.70709,-0.70709 -1,-1 -1,-1c-1,0 -1,-1 -1,-1c0,-1 -1,-1 -2,-1c-1,0 -2,0 -3,0c-1,0 -2,0 -3,0c-1,0 -2,0 -2,0c-1,0 -2,0 -3,0c-1,0 -2,0 -3,0c-1,0 -2,0 -3,0c-1,0 -1,0 -2,0c-1,0 -2,0 -3,0c-1,0 -2,0 -3,0c-1,0 -2,0 -3,0c0,0 -1,0 -2,0c-1,0 -2,0 -3,0c-1,0 -1.29291,-0.29291 -2,-1c-0.70709,-0.70709 -2,0 -3,0c0,0 -2,0 -3,0c-1,0 -3,0 -4,0c-1,0 -2,0 -3,0c0,0 0,-1 -1,-1c-1,0 -1.29291,-0.29291 -2,-1c-0.70709,-0.70709 -2.29291,0.70709 -3,0c-0.70709,-0.70709 -1,-1 -2,-1c-1,0 -2,0 -2,0c-1,0 -2,0 -3,0c-1,0 -2.29291,0.70709 -3,0c-0.70709,-0.70709 -1,-1 -2,-1c-1,0 -2,0 -2,-1c0,0 -1.29291,0.70709 -2,0c-0.70709,-0.70709 -1,-1 -2,-1c-1,0 -1.29291,-0.29291 -2,-1c-0.70709,-0.70709 -2,0 -3,0c-1,0 -1,0 -2,0l-1,0l-1,0l-1,0" id="svg_21" stroke="#0000bf" fill="none"/>
  <path d="m344.36649,273.82135c0,-1 -1.70709,-1.29291 -1,-2c0.70709,-0.70709 1.69345,-0.4588 3,-1c0.92389,-0.38269 2,0 2,0c1,0 2,0 3,0c1,0 2,0 3,0c1,0 2,0 3,0c1,0 1.29291,-0.70709 2,0c0.70709,0.70709 1.29291,0.29291 2,1c0.70709,0.70709 0.29291,1.29291 1,2c0.70709,0.70709 2.29291,-0.70709 3,0c0.70709,0.70709 1.07611,0.61731 2,1c1.30655,0.5412 1,1 2,1c1,0 2,0 3,0c1,0 2,0 3,0c1,0 2,0 3,0c0,0 1,0 2,0c1,0 2,0 3,0c1,0 2,0 3,0c1,0 2,0 2,0c0,0 1,0 3,0c1,0 2,0 3,0c1,0 2,0 3,0c1,0 1,0 2,0c1,0 2,0 2,0c0,1 0.29291,1.29291 1,2c0.70709,0.70709 1.29291,0.29291 2,1c0.70709,0.70709 0.29291,1.29291 1,2c0.70709,0.70709 0,2 0,3c0,1 0,2 0,2c0,1 -1,1 -1,2c0,1 -0.29291,1.29291 -1,2c-0.70709,0.70709 -0.29291,1.29291 -1,2c-0.70709,0.70709 -1.29291,0.29291 -2,1c-0.70709,0.70709 0,2 0,3c0,0 0,1 0,2c0,1 -1,1 -1,2c0,1 0,2 0,3c0,1 1,1 1,2c0,1 0,1 0,2c0,1 0,2 0,3c0,1 0,2 0,3c0,1 0,2 0,3c0,0 0,1 0,2c0,1 0,2 0,3c0,1 0,2 0,3c0,1 0,2 0,2c-1,0 -1,1 -2,1c0,0 0,1 0,2c0,1 0,2 0,3c0,1 0,2 0,3c0,1 0,1 0,2c0,1 0,2 0,3c0,1 0,2 0,3c0,1 0,2 0,3c0,0 0,1 0,2c0,1 0,2 0,3c0,1 0.29291,1.29291 1,2c0.70709,0.70709 0.29291,1.29291 1,2c0.70709,0.70709 0,1 1,2l1,0l1,0l1,0" id="svg_22" stroke="#0000bf" fill="none"/>
  <path d="m343.26157,273.87479c0.49261,0 1.12952,-0.34833 1.47784,0c0.34833,0.34833 0.14429,0.6369 0.49261,0.98523c0.34833,0.34833 0.49261,0.49261 0.49261,0.98523l0,0" id="svg_23" stroke="#0000bf" fill="none"/>
  <path d="m403.85272,355.64819c0,0.49261 0.49258,0.49261 0.9852,0.49261c0,0 0.5058,-0.11319 0.98523,0c1.07205,0.25308 1.47784,0.49261 1.97046,0.49261c0.9852,0 1.97043,0 1.97043,0c0.49261,0 1.47784,0 1.97046,0c0.49258,0 0.9852,0 1.47781,0c0.49261,0 0.98523,0 1.47784,0c0,0 0.53012,0.18854 0.98523,0c0.64362,-0.2666 0.9852,-0.49261 1.97043,-0.49261c0.49261,0 0.98523,0 1.47784,0c0.49261,0 0.9852,0 1.47781,0c0.49261,0 0.98523,0 1.47784,0c0.49261,0 0.98523,0 1.47781,0c0.49261,0 0.98523,0 0.98523,0c0.49261,0 0.8342,0.71863 1.47784,0.98523c0.45511,0.18851 1.02274,0.30411 1.47781,0.49261c0.64362,0.26657 1.32639,0.58423 1.97046,1.47781c0.40735,0.56516 1.47784,0.98523 2.46304,1.47784c0.98523,0.49261 1.97046,0.98523 2.46307,1.47781c0.49261,0.49261 1.07684,0.34116 1.97043,0.98523c0.56516,0.40735 0.6369,0.6369 0.98523,0.98523c0.34833,0.34833 0.6369,0.14429 0.98523,0.49261c0.34833,0.34833 0.9852,0.49261 0.9852,0.49261c0.49261,0.49261 1.12952,0.14429 1.47784,0.49261c0.3483,0.3483 0.49261,0.49258 0.98523,0.49258c0.49261,0 0.99838,-0.11319 1.47781,0c1.07205,0.25308 1.47784,0.49261 2.46307,0.49261c0.49261,0 1.97043,0 2.95566,0c0.49261,0 1.47784,0 2.95566,0c1.47784,0 2.47626,-0.37946 2.95566,-0.49261c1.07205,-0.25305 2.37625,-1.22473 3.4483,-1.47781c0.95883,-0.22635 0.9852,-0.49261 1.47781,-0.49261c0.98523,0 1.47784,-0.49261 1.97046,-0.49261c0.49258,0 0.9852,0 1.47781,0c0.49261,0 0.98523,0 0.98523,0c0.49261,0 0.98523,0 1.47784,0c0.49258,0 1.02271,-0.18851 1.47781,0c0.64365,0.2666 0.98523,0.49261 1.47784,0.98523c0.49261,0.49261 0.99841,0.87207 1.47781,0.98523c1.07205,0.25305 1.39102,1.22473 2.46307,1.47781c0.47943,0.11319 0.98523,0 1.47781,0.49261c0,0 0.56619,-0.25897 0.98523,0c0.93701,0.5791 0.99841,1.36469 1.47784,1.47784c1.07205,0.25305 1.70383,0.34155 1.97043,0.9852c0.18851,0.45511 0.53012,0.79672 0.98523,0.98523c0.64365,0.2666 0.6832,0.94464 1.97046,1.47784c0.45508,0.18851 0.9852,0 1.97043,0c0.49261,0 1.0116,-0.22635 1.97043,0c1.07205,0.25308 1.47784,0.49261 2.46307,0.49261c0.98523,0 1.5903,0.56555 2.95566,0c0.64365,-0.2666 1.97046,-0.49261 2.46304,-0.49261c0.49261,0 1.55283,-0.11557 2.46307,-0.49261c0.64365,-0.2666 1.76639,-0.28857 2.46304,-0.98523c0.34833,-0.34833 0.88522,-1.1116 1.47784,-1.47784c1.3251,-0.81894 1.68414,-0.69891 2.46304,-1.47781c0.7789,-0.7789 1.06024,-0.11557 1.97046,-0.49261c0.64362,-0.2666 0.9852,-0.98523 1.47781,-0.98523c0.49261,0 1.12952,0.34833 1.47784,0c0.34833,-0.34833 0.49261,-0.49261 0.98523,-0.49261c0.49258,0 0.91266,0.08527 1.47781,0.49261c0.89359,0.64407 1.39102,0.73215 2.46307,0.98523c0.95886,0.22635 1.44537,0.07108 2.46301,0.49261c1.43921,0.59616 2.53741,0.21408 3.4483,1.47781c0.28802,0.39963 1.06024,0.60818 1.97046,0.98523c0.64362,0.2666 0.98523,0.49261 1.47784,0.49261c0.49255,0 0.63684,0.14429 0.98517,0.49261c0.34833,0.34833 0.6369,-0.34833 0.98523,0c0.34833,0.34833 0.49261,0.49261 1.47784,0.49261c0.49261,0 0.98523,0 1.47784,0c0.49261,0 0.98523,0 1.47784,0c0,0 0.89838,-0.23953 1.9704,-0.49261c0.95886,-0.22638 1.47784,0 2.46307,0c0.49261,0 0.98523,-0.49261 1.97046,-0.49261c0.49261,0 0.83423,-0.71863 1.47784,-0.98523c0.45514,-0.18851 1.02271,-0.30408 1.47784,-0.49261c0.64355,-0.2666 0.34155,-1.21121 0.98517,-1.47781c0.45514,-0.18851 0.78119,0.20404 1.47784,-0.49261c0.34833,-0.34833 0.71863,-0.34158 0.98523,-0.98523c0.18854,-0.45511 0.6369,-0.14429 0.98523,-0.49261c0.34833,-0.3483 0.49261,-0.49258 0.98523,-0.9852c0,0 0,-0.49261 0.49261,-0.49261c0.49261,0 0.98523,0 1.47784,0c0.49255,0 0.83417,0.22601 1.47778,0.49261c0.91022,0.37704 1.47784,0.49261 1.97046,0.49261c0.49261,0 1.47784,0.49258 1.97046,0.49258c0.98523,0 1.47784,0 2.46307,0.49261c0,0 0.49255,0 0.98517,0c0.49261,0 1.12952,0.34833 1.47784,0c0.34833,-0.34833 0.53009,-0.30411 0.98523,-0.49261c0.64362,-0.26657 0.79669,-1.02271 0.98523,-1.47781c0.2666,-0.64365 0.34119,-1.07687 0.98523,-1.97046c0.40735,-0.56516 0.79669,-1.51532 0.98523,-1.97043c0.5332,-1.28726 1.21124,-1.81943 1.47784,-2.46307c0.18848,-0.45508 0.22601,-1.32681 0.49255,-1.97043c0.37701,-0.91025 0,-1.97046 0,-2.46304c0,-0.98523 0.23956,-1.88364 0.49261,-2.95569c0.22638,-0.95883 0.22601,-2.31201 0.49261,-2.95566c0.18854,-0.45511 0,-1.47784 0,-2.95566c0,-0.98523 0,-1.97046 0,-2.46304c0,-1.47784 0,-1.97046 0,-3.4483c0,-0.49258 0.49261,-0.9852 0.49261,-1.47781c0,-0.49261 0,-1.47784 0,-1.97046c0,-0.9852 0,-1.47781 0,-1.97043c0,-0.49261 0.22601,-0.8342 0.49261,-1.47784c0.18854,-0.45511 0.49261,-0.98523 0.49261,-1.47781c0,-0.49261 0.30408,-1.02274 0.49261,-1.47784c0.2666,-0.64365 0.49261,-0.98523 0.49261,-0.98523c0.49261,0 0.98523,-0.49261 0.98523,-0.98523c0,-0.49258 0.49261,-0.49258 0.98523,-0.49258c0.49261,0 0.49261,-0.49261 0.98523,-0.49261c0,0 0.49261,0 0.98517,-0.49261c0.49261,-0.49265 1.12952,-0.6369 1.47784,-0.98523c0.34833,-0.34833 0.53009,-0.79672 0.98523,-0.98523c0.64362,-0.26657 0.6369,-1.12949 0.98523,-1.47781c0.34833,-0.34833 0.49261,-0.98523 0.49261,-1.47784c0,-0.49261 0.22601,-0.8342 0.49261,-1.47781c0.37708,-0.91022 0,-0.98523 0,-1.97046c0,-0.49261 0,-0.98523 0,-1.47784c0,-0.49258 0,-0.9852 0,-1.47781c0,-0.49261 0,-0.98523 0,-0.98523c0,-0.49261 0,-0.98523 0,-1.47784c0,-0.49258 -0.49261,-0.49258 -0.49261,-0.9852c0,-0.49261 0,-0.98523 0,-1.47784c0,-0.49261 0,-0.98523 0,-0.98523c0,-0.49261 0.49261,-0.49261 0.49261,-0.9852c0,-0.49261 0.14429,-0.6369 0.49261,-0.98523c0.34833,-0.34833 0.6369,-0.14429 0.98523,-0.49261c0.34833,-0.34833 0.49261,-0.49261 0.98523,-0.49261c0.49261,0 0.49261,-0.49261 0.98517,-0.49261c0.49261,0 0.98523,0 1.47784,0c0,0 0.6369,-0.34833 0.98523,0c0.34833,0.34833 0.14429,0.6369 0.49261,0.98523c0.34833,0.34833 1.21124,-0.15103 1.47784,0.49261c0.18854,0.45511 0.49261,0.49261 0.98523,0.49261c0.49261,0 0.98523,0 0.98523,0.49261c0,0 0.49261,0 0.98517,0l0.49261,0l0.49261,0l0.49261,0" id="svg_28" stroke="#0000bf" fill="none"/>
  <path d="m584.23596,306.77502c0,0 0,-0.42194 0,-0.84387c0,-0.42197 0,-0.8439 0,-1.26584c0,-0.42194 0,-0.84387 0,-0.84387c0.42194,0 0.54553,-0.1236 0.84387,-0.42194c0.29834,-0.29834 0.42194,-0.42194 0.42194,-0.8439c0,0 0.42194,0 0.84387,0l0.42194,0l0.42194,0l0.42194,0" id="svg_29" stroke="#0000bf" fill="none"/>
  <path d="m380.3761,131.78653c0.39682,0 0.79367,0 1.19049,0c0.39682,0 0.79364,0 0.79364,0c0.39682,0 0.39682,0.39684 0.79364,0.39684c0.39685,0 0.11624,0.51305 0.39685,0.79364c0.28061,0.28059 0.39682,0.39684 0.39682,0.79366c0,0.39682 0.39682,0.79366 0.39682,1.19048c0,0 0,0.39682 0,0.79366c0,0 0,0.39682 0,0.79364c0,0.39684 0.39682,0.39684 0.39682,0.79366c0,0.39682 -0.28061,0.90988 0,1.19048c0.28061,0.28059 0.39682,0.39682 0.39682,0.79366c0,0.39682 -0.15186,0.42702 0,0.79364c0.21475,0.51848 0.51306,0.51305 0.79367,0.79366c0.28061,0.28059 0.11621,0.51306 0.39682,0.79366c0.28061,0.28059 0.11621,0.51305 0.39682,0.79364c0.28061,0.28061 0.11621,0.51306 0.39682,0.79366c0.28061,0.28059 0.39682,0.39682 0.79367,0.39682c0,0 0.11621,0.11624 0.39682,0.39684c0.28061,0.28059 0,0.39682 0,0.79366c0,0.39682 0.51303,0.11623 0.79364,0.39682c0.28061,0.28059 0.11621,0.51305 0.39682,0.79366c0.28061,0.28059 0.24496,0.42703 0.39682,0.79364c0.21478,0.51849 0.51306,0.51306 0.79367,0.79366c0.28061,0.28059 0.51303,-0.28059 0.79364,0c0.28061,0.28059 0.11621,0.51305 0.39682,0.79366c0.28061,0.28059 0.39682,0.39682 0.39682,0.79364c0,0 -0.12164,0.5789 0.39685,0.79366c0.36661,0.15186 0.51303,0.11623 0.79364,0.39682c0.28061,0.28059 0.51303,0.11623 0.79364,0.39684c0.28061,0.28059 0.79367,0 1.19049,0c0.39682,0 0.79364,0 1.19046,0c0.39682,0 0.79367,-0.39684 1.19049,-0.39684c0.39682,0 0.64178,-0.03021 0.79364,-0.39682c0.21475,-0.51846 0.79367,-0.39682 1.19049,-0.39682c0.39682,0 0.39682,-0.39684 0.39682,-0.39684c0.39682,-0.39682 0.90985,-0.11623 1.19046,-0.39682c0.28061,-0.28059 0.90988,-0.51306 1.19049,-0.79366c0.28061,-0.28059 0.39682,-0.39682 0.39682,-0.39682c0.39682,0 0.11621,-0.51305 0.39682,-0.79366c0.28061,-0.28059 0.79367,0 0.79367,-0.39682c0,-0.39682 0.39682,-0.79366 0.39682,-1.19048c0,-0.39682 0.51303,-0.11623 0.79364,-0.39682c0.28061,-0.28061 0.11621,-0.51306 0.39682,-0.79366c0.28061,-0.28059 0.39682,-0.39684 0.79367,-0.39684c0.39682,0 0.79364,0 1.19046,0c0.39682,0 0.39682,0 0.79364,0c0.39685,0 0.79367,0 1.19049,0c0.39682,0 0.79364,0 1.19046,0c0.39685,0 0.79367,0 1.19049,0c0,0 0.39682,0 0.39682,0.39684c0,0.39682 0,0.79366 0,1.19048c0,0.39682 0.15186,0.82387 0,1.19048c-0.21475,0.51846 -0.39682,0.79366 -0.39682,0.79366c-0.39682,0.39682 -0.79364,0.39682 -0.79364,0.39682c0,0.39682 -0.57892,0.27518 -0.79367,0.79366c-0.15186,0.36662 -0.42703,0.24496 -0.79364,0.39682c-0.51846,0.21475 -0.64178,0.42703 -0.79364,0.79366c-0.21478,0.51849 -0.79367,0.39682 -0.79367,0.39682c0,0.39682 0,0.79366 -0.39682,0.79366c-0.39682,0 -0.42703,0.24496 -0.79364,0.39682c-0.51846,0.21475 -0.79367,0.39682 -0.79367,0.39682c-0.39682,0 -0.42703,0.24498 -0.79364,0.39684c-0.51846,0.21475 -0.51303,0.51305 -0.79364,0.79364c-0.28061,0.28061 -0.39682,0.39684 -0.39682,0.79366c0,0 -0.11624,0.11623 -0.39685,0.39682c-0.28061,0.28059 -0.51303,0.11624 -0.79364,0.39684c-0.28061,0.28059 -0.51303,0.11623 -0.79364,0.39682c-0.28061,0.28059 -0.27518,0.57889 -0.79367,0.79366c-0.36661,0.15186 -0.51303,0.11623 -0.79364,0.39682c-0.28061,0.28059 -0.39682,0.39682 -0.39682,0.39682c0,0.39684 -0.11621,0.51306 -0.39682,0.79366c-0.28061,0.28059 -0.27518,0.5789 -0.79367,0.79366c-0.36661,0.15186 -0.51303,0.11623 -0.79364,0.39682c-0.28061,0.28061 0,0.79366 -0.39682,0.79366c-0.39682,0 -0.39682,0.39682 -0.39682,0.39682c-0.39685,0 -0.79367,0.39684 -0.79367,0.79366c0,0.39682 -0.39682,0.39682 -0.39682,0.79366c0,0 -0.39682,0 -0.39682,0.39682c0,0.39682 -0.11621,0.51306 -0.39682,0.79366c-0.28061,0.28059 -0.39682,0.39682 -0.39682,0.79364c0,0.39684 -0.39685,0.39684 -0.39685,0.39684c-0.39682,0 -0.11621,0.51305 -0.39682,0.79364c-0.28061,0.28059 -0.39682,0.39684 -0.39682,0.79366c0,0.39682 0,0.79366 0,1.19048c0,0.39682 -0.11621,0.51306 -0.39682,0.79366c-0.28061,0.28059 -0.39682,0.39682 -0.39682,0.39682c0,0.39682 0,0.79366 0,1.19048c0,0.39684 -0.11621,0.51306 -0.39682,0.79366c-0.28061,0.28059 0,0.79366 0,1.19048c0,0.39682 0,0.79366 0,0.79366c0,0.39682 0.03021,0.64178 0.39682,0.79364c0.51846,0.21477 0.51303,0.51306 0.79364,0.79366c0.28061,0.28059 -0.15186,0.82387 0,1.19048c0.21475,0.51846 0.11621,0.90988 0.39682,1.19048c0.28061,0.28059 0.51306,0.11623 0.79367,0.39682c0.28061,0.28059 0.11621,0.51306 0.39682,0.79366c0.28061,0.28059 0.11621,0.51305 0.39682,0.79366c0.28061,0.28059 0.39682,0.39682 0.39682,0.79364c0,0.39684 0.39682,0.39684 0.39682,0.79366c0,0.39682 0,0.39684 0.39682,0.79366c0.39685,0.39684 0.57892,0.672 0.79367,1.19048c0.15186,0.36662 0.39682,0.39682 0.39682,0.79366c0,0.39682 -0.16437,0.62927 0.39682,1.19048c0.28061,0.28059 0.39682,0.39682 0.79367,0.39682c0.39682,0 0.57889,-0.12164 0.79364,0.39682c0.15186,0.36662 0.03021,0.6418 0.39682,0.79366c0.51846,0.21475 0.42703,0.6418 0.79364,0.79366c0.51849,0.21475 0.42706,0.64178 0.79367,0.79364c0.51846,0.21477 0.51303,0.51306 0.79364,0.79366c0.28061,0.28059 0.39682,0.39682 0.79364,0.39682c0.39685,0 0.39685,0 0.39685,0c0,0.39684 0.39682,0.39684 0.79364,0.39684c0.39682,0 0.39682,0.39682 0.79364,0.39682c0.39682,0 0.11621,0.51305 0.39682,0.79366c0.28061,0.28061 0.90988,-0.28059 1.19049,0c0.28061,0.28059 0.39682,0.39682 0.79364,0.39682c0,0 0,0.39682 0.39682,0.39682c0.39685,0 0.27521,0.5789 0.79367,0.79366c0.36661,0.15186 0.79364,0.39682 1.19046,0.39682c0.39682,0 0.39682,0.39684 0.79367,0.39684c0.39682,0 0.51303,-0.28059 0.79364,0c0.28061,0.28059 0.11621,0.11623 0.39682,0.39682c0.28061,0.28059 0.11621,0.51305 0.39682,0.79366c0.28061,0.28061 0.64182,0.0302 0.79367,0.39682c0.21475,0.51848 0.79364,0.39684 1.19046,0.39684c0.39682,0 0.39682,0.39682 0.79367,0.39682c0.39682,0 0.39682,0.39682 0.39682,0.39682c0.39682,0 0.79364,0 1.19046,0c0.39682,0 0.79367,0 1.19049,0c0.39682,0 0.79364,0 1.19046,0c0.39682,0 0.79367,-0.39682 1.58731,-0.39682c0.79364,0 1.06882,-0.57889 1.58731,-0.79366c0.73325,-0.30371 0.90985,-0.11623 1.19046,-0.39682c0.56122,-0.5612 0.90988,-0.11623 1.19049,-0.39684c0.28061,-0.28059 0.90985,0.28059 1.19046,0c0.28061,-0.28059 0.11621,-0.51305 0.39682,-0.79364c0.28061,-0.28061 0.79367,0 1.19049,0c0,0 0.39682,0 0.39682,0c0.39682,0 0.51303,-0.11623 0.79364,-0.39684c0.28061,-0.28061 0.51306,-0.51305 0.79367,-0.79364c0.28061,-0.28059 0.90985,-0.11624 1.19046,-0.39684c0.28061,-0.28059 0,-0.79364 0.39682,-0.79364c0.39685,0 0.11624,-0.51306 0.39685,-0.79366c0.28061,-0.28059 0.51303,-0.11623 0.79364,-0.39682c0.28061,-0.28061 0.18207,-0.27519 0.39682,-0.79366c0.15186,-0.36661 0.11621,-0.51305 0.39682,-0.79366c0.28061,-0.28059 0.79367,0 0.79367,-0.39682c0,-0.39682 0.11621,-0.51305 0.39682,-0.79366c0.28061,-0.28059 0.51303,-0.11623 0.79364,-0.39682c0.28061,-0.28059 0.39682,0 0.39682,-0.39682c0,-0.39684 0.42706,-0.24498 0.79367,-0.39684c0.51846,-0.21475 0.79364,-0.39682 1.19046,-0.39682c0,0 0.11621,-0.11623 0.39682,-0.39682c0.28061,-0.28061 0.42706,-0.24498 0.79367,-0.39684c0.51846,-0.21475 0.79364,-0.39682 0.79364,-0.79364c0,0 0.39682,0 0.39682,-0.39684c0,-0.39682 0.51306,-0.51305 0.79367,-0.79366c0.28061,-0.28059 0.39682,-0.39682 0.39682,-0.79364c0,-0.39684 0.39682,-0.39684 0.39682,-0.39684c0.39682,0 0.51303,-0.11623 0.79364,-0.39682c0.28061,-0.28059 0.11621,-0.90988 0.39682,-1.19048c0.28061,-0.28061 0.39685,-0.39682 0.79367,-0.39682c0,0 0.11621,-0.11624 0.39682,-0.39684c0.28061,-0.28059 0.51303,-0.51305 0.79364,-0.79364c0.28061,-0.28061 0.51306,-0.11623 0.79367,-0.39684c0.28061,-0.28059 0.39682,-0.39682 0.39682,-0.39682l0.39682,0" id="svg_32" stroke="#0000bf" fill="none"/>
 </g>
</svg>
