<svg width="800" height="500" xmlns="http://www.w3.org/2000/svg">
 <g id="Layer_1">
  <title>Layer 1</title>
  <polyline stroke-linecap="round" id="svg_4" points="345.36647449045887,275.8213618882924 346.36647449045887,275.8213618882924 " stroke="#005E00" fill="none"/>
  <path d="m380.3761,131.78653c0.39682,0 0.79367,0 1.19049,0c0.39682,0 0.79364,0 0.79364,0c0.39682,0 0.39682,0.39684 0.79364,0.39684c0.39685,0 0.11624,0.51305 0.39685,0.79364c0.28061,0.28059 0.39682,0.39684 0.39682,0.79366c0,0.39682 0.39682,0.79366 0.39682,1.19048c0,0 0,0.39682 0,0.79366c0,0 0,0.39682 0,0.79364c0,0.39684 0.39682,0.39684 0.39682,0.79366c0,0.39682 -0.28061,0.90988 0,1.19048c0.28061,0.28059 0.39682,0.39682 0.39682,0.79366c0,0.39682 -0.15186,0.42702 0,0.79364c0.21475,0.51848 0.51306,0.51305 0.79367,0.79366c0.28061,0.28059 0.11621,0.51306 0.39682,0.79366c0.28061,0.28059 0.11621,0.51305 0.39682,0.79364c0.28061,0.28061 0.11621,0.51306 0.39682,0.79366c0.28061,0.28059 0.39682,0.39682 0.79367,0.39682c0,0 0.11621,0.11624 0.39682,0.39684c0.28061,0.28059 0,0.39682 0,0.79366c0,0.39682 0.51303,0.11623 0.79364,0.39682c0.28061,0.28059 0.11621,0.51305 0.39682,0.79366c0.28061,0.28059 0.24496,0.42703 0.39682,0.79364c0.21478,0.51849 0.51306,0.51306 0.79367,0.79366c0.28061,0.28059 0.51303,-0.28059 0.79364,0c0.28061,0.28059 0.11621,0.51305 0.39682,0.79366c0.28061,0.28059 0.39682,0.39682 0.39682,0.79364c0,0 -0.12164,0.5789 0.39685,0.79366c0.36661,0.15186 0.51303,0.11623 0.79364,0.39682c0.28061,0.28059 0.51303,0.11623 0.79364,0.39684c0.28061,0.28059 0.79367,0 1.19049,0c0.39682,0 0.79364,0 1.19046,0c0.39682,0 0.79367,-0.39684 1.19049,-0.39684c0.39682,0 0.64178,-0.03021 0.79364,-0.39682c0.21475,-0.51846 0.79367,-0.39682 1.19049,-0.39682c0.39682,0 0.39682,-0.39684 0.39682,-0.39684c0.39682,-0.39682 0.90985,-0.11623 1.19046,-0.39682c0.28061,-0.28059 0.90988,-0.51306 1.19049,-0.79366c0.28061,-0.28059 0.39682,-0.39682 0.39682,-0.39682c0.39682,0 0.11621,-0.51305 0.39682,-0.79366c0.28061,-0.28059 0.79367,0 0.79367,-0.39682c0,-0.39682 0.39682,-0.79366 0.39682,-1.19048c0,-0.39682 0.51303,-0.11623 0.79364,-0.39682c0.28061,-0.28061 0.11621,-0.51306 0.39682,-0.79366c0.28061,-0.28059 0.39682,-0.39684 0.79367,-0.39684c0.39682,0 0.79364,0 1.19046,0c0.39682,0 0.39682,0 0.79364,0c0.39685,0 0.79367,0 1.19049,0c0.39682,0 0.79364,0 1.19046,0c0.39685,0 0.79367,0 1.19049,0c0,0 0.39682,0 0.39682,0.39684c0,0.39682 0,0.79366 0,1.19048c0,0.39682 0.15186,0.82387 0,1.19048c-0.21475,0.51846 -0.39682,0.79366 -0.39682,0.79366c-0.39682,0.39682 -0.79364,0.39682 -0.79364,0.39682c0,0.39682 -0.57892,0.27518 -0.79367,0.79366c-0.15186,0.36662 -0.42703,0.24496 -0.79364,0.39682c-0.51846,0.21475 -0.64178,0.42703 -0.79364,0.79366c-0.21478,0.51849 -0.79367,0.39682 -0.79367,0.39682c0,0.39682 0,0.79366 -0.39682,0.79366c-0.39682,0 -0.42703,0.24496 -0.79364,0.39682c-0.51846,0.21475 -0.79367,0.39682 -0.79367,0.39682c-0.39682,0 -0.42703,0.24498 -0.79364,0.39684c-0.51846,0.21475 -0.51303,0.51305 -0.79364,0.79364c-0.28061,0.28061 -0.39682,0.39684 -0.39682,0.79366c0,0 -0.11624,0.11623 -0.39685,0.39682c-0.28061,0.28059 -0.51303,0.11624 -0.79364,0.39684c-0.28061,0.28059 -0.51303,0.11623 -0.79364,0.39682c-0.28061,0.28059 -0.27518,0.57889 -0.79367,0.79366c-0.36661,0.15186 -0.51303,0.11623 -0.79364,0.39682c-0.28061,0.28059 -0.39682,0.39682 -0.39682,0.39682c0,0.39684 -0.11621,0.51306 -0.39682,0.79366c-0.28061,0.28059 -0.27518,0.5789 -0.79367,0.79366c-0.36661,0.15186 -0.51303,0.11623 -0.79364,0.39682c-0.28061,0.28061 0,0.79366 -0.39682,0.79366c-0.39682,0 -0.39682,0.39682 -0.39682,0.39682c-0.39685,0 -0.79367,0.39684 -0.79367,0.79366c0,0.39682 -0.39682,0.39682 -0.39682,0.79366c0,0 -0.39682,0 -0.39682,0.39682c0,0.39682 -0.11621,0.51306 -0.39682,0.79366c-0.28061,0.28059 -0.39682,0.39682 -0.39682,0.79364c0,0.39684 -0.39685,0.39684 -0.39685,0.39684c-0.39682,0 -0.11621,0.51305 -0.39682,0.79364c-0.28061,0.28059 -0.39682,0.39684 -0.39682,0.79366c0,0.39682 0,0.79366 0,1.19048c0,0.39682 -0.11621,0.51306 -0.39682,0.79366c-0.28061,0.28059 -0.39682,0.39682 -0.39682,0.39682c0,0.39682 0,0.79366 0,1.19048c0,0.39684 -0.11621,0.51306 -0.39682,0.79366c-0.28061,0.28059 0,0.79366 0,1.19048c0,0.39682 0,0.79366 0,0.79366c0,0.39682 0.03021,0.64178 0.39682,0.79364c0.51846,0.21477 0.51303,0.51306 0.79364,0.79366c0.28061,0.28059 -0.15186,0.82387 0,1.19048c0.21475,0.51846 0.11621,0.90988 0.39682,1.19048c0.28061,0.28059 0.51306,0.11623 0.79367,0.39682c0.28061,0.28059 0.11621,0.51306 0.39682,0.79366c0.28061,0.28059 0.11621,0.51305 0.39682,0.79366c0.28061,0.28059 0.39682,0.39682 0.39682,0.79364c0,0.39684 0.39682,0.39684 0.39682,0.79366c0,0.39682 0,0.39684 0.39682,0.79366c0.39685,0.39684 0.57892,0.672 0.79367,1.19048c0.15186,0.36662 0.39682,0.39682 0.39682,0.79366c0,0.39682 -0.16437,0.62927 0.39682,1.19048c0.28061,0.28059 0.39682,0.39682 0.79367,0.39682c0.39682,0 0.57889,-0.12164 0.79364,0.39682c0.15186,0.36662 0.03021,0.6418 0.39682,0.79366c0.51846,0.21475 0.42703,0.6418 0.79364,0.79366c0.51849,0.21475 0.42706,0.64178 0.79367,0.79364c0.51846,0.21477 0.51303,0.51306 0.79364,0.79366c0.28061,0.28059 0.39682,0.39682 0.79364,0.39682c0.39685,0 0.39685,0 0.39685,0c0,0.39684 0.39682,0.39684 0.79364,0.39684c0.39682,0 0.39682,0.39682 0.79364,0.39682c0.39682,0 0.11621,0.51305 0.39682,0.79366c0.28061,0.28061 0.90988,-0.28059 1.19049,0c0.28061,0.28059 0.39682,0.39682 0.79364,0.39682c0,0 0,0.39682 0.39682,0.39682c0.39685,0 0.27521,0.5789 0.79367,0.79366c0.36661,0.15186 0.79364,0.39682 1.19046,0.39682c0.39682,0 0.39682,0.39684 0.79367,0.39684c0.39682,0 0.51303,-0.28059 0.79364,0c0.28061,0.28059 0.11621,0.11623 0.39682,0.39682c0.28061,0.28059 0.11621,0.51305 0.39682,0.79366c0.28061,0.28061 0.64182,0.0302 0.79367,0.39682c0.21475,0.51848 0.79364,0.39684 1.19046,0.39684c0.39682,0 0.39682,0.39682 0.79367,0.39682c0.39682,0 0.39682,0.39682 0.39682,0.39682c0.39682,0 0.79364,0 1.19046,0c0.39682,0 0.79367,0 1.19049,0c0.39682,0 0.79364,0 1.19046,0c0.39682,0 0.79367,-0.39682 1.58731,-0.39682c0.79364,0 1.06882,-0.57889 1.58731,-0.79366c0.73325,-0.30371 0.90985,-0.11623 1.19046,-0.39682c0.56122,-0.5612 0.90988,-0.11623 1.19049,-0.39684c0.28061,-0.28059 0.90985,0.28059 1.19046,0c0.28061,-0.28059 0.11621,-0.51305 0.39682,-0.79364c0.28061,-0.28061 0.79367,0 1.19049,0c0,0 0.39682,0 0.39682,0c0.39682,0 0.51303,-0.11623 0.79364,-0.39684c0.28061,-0.28061 0.51306,-0.51305 0.79367,-0.79364c0.28061,-0.28059 0.90985,-0.11624 1.19046,-0.39684c0.28061,-0.28059 0,-0.79364 0.39682,-0.79364c0.39685,0 0.11624,-0.51306 0.39685,-0.79366c0.28061,-0.28059 0.51303,-0.11623 0.79364,-0.39682c0.28061,-0.28061 0.18207,-0.27519 0.39682,-0.79366c0.15186,-0.36661 0.11621,-0.51305 0.39682,-0.79366c0.28061,-0.28059 0.79367,0 0.79367,-0.39682c0,-0.39682 0.11621,-0.51305 0.39682,-0.79366c0.28061,-0.28059 0.51303,-0.11623 0.79364,-0.39682c0.28061,-0.28059 0.39682,0 0.39682,-0.39682c0,-0.39684 0.42706,-0.24498 0.79367,-0.39684c0.51846,-0.21475 0.79364,-0.39682 1.19046,-0.39682c0,0 0.11621,-0.11623 0.39682,-0.39682c0.28061,-0.28061 0.42706,-0.24498 0.79367,-0.39684c0.51846,-0.21475 0.79364,-0.39682 0.79364,-0.79364c0,0 0.39682,0 0.39682,-0.39684c0,-0.39682 0.51306,-0.51305 0.79367,-0.79366c0.28061,-0.28059 0.39682,-0.39682 0.39682,-0.79364c0,-0.39684 0.39682,-0.39684 0.39682,-0.39684c0.39682,0 0.51303,-0.11623 0.79364,-0.39682c0.28061,-0.28059 0.11621,-0.90988 0.39682,-1.19048c0.28061,-0.28061 0.39685,-0.39682 0.79367,-0.39682c0,0 0.11621,-0.11624 0.39682,-0.39684c0.28061,-0.28059 0.51303,-0.51305 0.79364,-0.79364c0.28061,-0.28061 0.51306,-0.11623 0.79367,-0.39684c0.28061,-0.28059 0.39682,-0.39682 0.39682,-0.39682l0.39682,0" id="svg_32" stroke="#00bf00" fill="none"/>
 </g>
</svg>
