<svg width="800" height="500" xmlns="http://www.w3.org/2000/svg">
 <g id="Layer_1">
  <title>Layer 1</title>
  <path d="m131.82101,172.55138c0,0 0,1 0,2c0,1 0,2 0,3c0,1 0.4588,0.69344 1,2c0.38269,0.92387 0,2 0,2c0,1 0,2 0,3c0,1 -0.70711,2.29289 0,3c0.70711,0.70711 1,1 1,1c0,1 0,2 0,3c0,1 0,3 0,4c0,1 1,2 1,3c0,0 0,1 0,2c0,1 1,2 1,3c0,2 1,2 1,4c0,1 0.1731,1.85274 1,3c1.30745,1.814 0.69255,3.186 2,5c0.8269,1.14726 1.07613,2.61731 2.00002,3c1.30656,0.5412 1.4588,1.69344 2,3c0.38269,0.92387 0.4588,1.69344 1,3c0.38269,0.92387 1,2 2,4c0,0 1.61731,1.07613 2,2c0.5412,1.30656 1.61731,2.07613 2,3c0.5412,1.30656 2.4588,1.69344 3,3c0.38269,0.92387 1.186,1.69255 3,3c1.14726,0.8269 2.34619,2.70546 4,5c1.30745,1.814 3,3 4,4c2,2 4.06601,2.87766 6,4c3.11848,1.80972 4.06599,2.87767 6,4.00002c3.11847,1.80972 5,2 7,2c3,0 6,1 9,1c1,0 3,0 5,0c2,0 4.15224,0.76538 6,0c1.30656,-0.5412 3,-1 4,-2c2,-2.00002 4,-3.00002 5,-5.00002c1,-2 3.186,-3.69255 5,-5c2.29454,-1.65381 2.71413,-5.21167 5,-8c0.89659,-1.09367 2.33749,-4.31001 4,-7c2.23048,-3.60901 4.19028,-4.88152 6,-8c1.12234,-1.93399 2,-4 4,-6c1,-1 1.69344,-2.4588 3,-3c0.92387,-0.38269 0.69344,-1.4588 2,-2c0.92387,-0.38269 2,-1 2,-1c1,0 2,-1 3,-1c1,0 2,0 3,0c1,0 2.41885,0.41885 4,2c1.58115,1.58115 2.76106,3.41589 5.99998,5c2.84073,1.38936 5.15927,2.61064 8,4c3.23892,1.58411 6.186,3.69255 8,5c1.14728,0.8269 2.69345,1.4588 4,2c1.84775,0.76537 3,1 4,2c0,0 0.69345,1.4588 2,2c1.84775,0.76537 3.02676,0.77025 4,1c2.17624,0.51375 3,1 4,1c0,0 0.82376,1.48625 3,2c0.97324,0.22975 2,0 3,0c1,0 2,0 3,0c1,0 1.15225,-0.23463 3,-1c1.30655,-0.5412 1.69345,-1.4588 3,-2c0.92389,-0.38269 2.61731,-1.07613 3,-2c0.5412,-1.30656 1,-2 2,-3c1,-1 3.41885,-1.41885 5,-3c1.58115,-1.58115 2,-4 4,-6c1,-1 4,-2 6,-3c2,-1 3.69254,-3.186 5,-5c0.8269,-1.14726 2.38687,-1.9176 5,-3c0.92389,-0.38269 2,-1 3,-1c1,0 1,0 2,0c1,0 2,0 3,0c1,0 2,0 4,0c2,0 3.93414,2.14429 6,3c2.92157,1.21014 5.93414,3.14429 8,4c2.92157,1.21014 6,3 8,3c2,0 4,1 6,2c2,1 3.69345,1.4588 5,2c1.84775,0.76537 4,1 7,1c2,0 3,1 5,1c2,0 4,0 6,0c1,0 2.07611,-0.61731 3,-1c1.30655,-0.5412 2,-2 4,-4c1,-1 3.34619,-1.70546 5,-4c1.30746,-1.814 2.4505,-4.45049 5,-7c2.5495,-2.54951 5,-4 7,-7c2,-3 5.61383,-2.297 8,-5c1.47983,-1.67633 4.186,-2.69255 6,-4c2.29453,-1.65381 3.93414,-3.14429 6,-4c2.92157,-1.21014 4.88153,-2.19028 8,-4c1.93399,-1.12234 5,-2 9,-4c2,-1 5.03873,-1.51945 8,-2c3.12143,-0.50655 5.86829,-2.28859 10,-4c2.92157,-1.21014 5.86829,-2.28859 10,-4c2.92157,-1.21014 6.22937,-1.33199 10,-3c3.29733,-1.45863 7,-3.00002 11,-5c2.00003,-1 5.76114,-1.41589 9.00003,-3c2.8407,-1.38936 5.04132,-1.84723 9,-3c3.03619,-0.88414 5.7027,-2.54137 9,-4c3.77063,-1.66801 5.86829,-2.28859 10,-4c2.92157,-1.21014 6,-1 10,-2c4,-1 7.71198,-2.98163 13,-4c2.94586,-0.56732 7,-1 11,-2c4,-1 7.90778,-2.49623 12,-3c3.97003,-0.48874 7,-1 10,-1c2,0 5,-1 7,-1c2,0 3,0 4,0c1,0 2,0 3,0c1,0 2,1 3,2c0,0 2,1 2,1c1,2 1.58582,1.58578 3,3c0.70709,0.70711 0.23462,2.15224 1,4c0.5412,1.30656 1,2 1,2c1,2 1.4588,2.69344 2,4c0.38269,0.92387 0,2 0,3c0,1 0,2 0,3c0,0 -1.4588,1.69344 -2,3c-0.38269,0.92387 -1.18604,2.69255 -3,4c-2.29456,1.65381 -3.07611,3.61731 -4,4c-3.91968,1.62358 -5,4 -7,6c-1,1 -1.3869,2.9176 -4,4c-0.92389,0.38269 -2.41888,0.41885 -4,2c-1.58112,1.58115 -2.4588,2.69344 -3,4c-0.38269,0.92387 -1,2 -2,3c-1,1 -2,2 -3,3c-1,1 -1,3 -2,4c-1,1 -1,3 -1,4c0,0 0.61731,1.07613 1,2c0.5412,1.30656 1.29291,1.29289 2,2c0.70709,0.70711 0.07611,1.61731 1,2c1.30658,0.5412 1.61731,1.07613 2,2c0.5412,1.30656 2,1 2,2c0,0 0.61731,1.07613 1,2c0.5412,1.30656 1,2 1,3c0,3 0,4 0,6c0,2 -1,6 -2,9c-1,3 -4.19031,6.88152 -6,10c-2.24469,3.868 -4.14429,7.93414 -5,10c-1.21014,2.92157 -1.85193,6.22836 -3,9.00002c-0.5412,1.30655 -1.23462,4.15225 -2,6c-0.5412,1.30655 -1,3 -1,4c0,1 0,3 0,4c0,1 0,3 0,5c0,2 -0.76538,2.15225 0,4c0.5412,1.30655 1.14935,2.52573 2,2c1.9021,-1.17557 2.61066,-4.15927 4,-7c1.58411,-3.23892 4.1593,-5.61066 7,-7c3.23889,-1.58411 5,-4 9,-7c4,-3 7.91827,-4.11215 12,-7.00002c2.94336,-2.08247 6.133,-4.5695 10,-6c2.09717,-0.7758 4,-3 7,-6c1,-1 3,-2 4,-3c1,-1 1.70709,0.29289 1,1c-0.70709,0.70711 -2,2 -4,4c-1,1 -4.07611,3.61731 -5,4c-3.91968,1.62358 -5.21167,4.71411 -8,7c-3.28101,2.6898 -5,3.00002 -8,5.00002c-3,2 -4.21167,2.71411 -7,5c-2.18732,1.79318 -4.44806,1.42282 -7,3c-1.9021,1.17557 -3,3 -4,4c-1,1 -2.69342,1.4588 -4,2c-0.92389,0.38269 -0.29291,1.29291 -1,2c-0.70709,0.70709 -0.61731,0.07611 -1,1c-0.5412,1.30655 -2.18604,0.69254 -4,2c-1.14728,0.8269 -4,2 -6,4c-1,1 -3.07843,1.78986 -6,3c-2.06586,0.85571 -4,2 -6,2c-2,0 -4.82373,0.48627 -7,1c-0.97327,0.22977 -3,1 -5,1c-2,0 -4,1 -6,1c0,0 -2,0 -3,0c-1,0 -1,1 -1,2c0,1 0,2 0,3c0,1 0,2 0,2c0,1 -0.38269,2.07611 0,3c0.5412,1.30655 2,2 3,4c1,2 0.85272,3.1731 2,4c1.81396,1.30746 2.3869,2.9176 5,4c0.92389,0.38269 2.07611,0.61731 3,1c1.30658,0.5412 1.05353,0.5405 3,1c2.17627,0.51373 3.87854,1.49347 7,2c1.97418,0.32037 6.02997,0.48874 10,0c4.09222,-0.50378 9.03876,-1.51944 12,-2c6.24286,-1.01309 11,-2 16,-2c5,0 10,0 13,0c2,0 6.15222,0.23462 8,1c1.30658,0.5412 2,1 2,2c0,1 0.29291,1.29291 1,2c0.70709,0.70709 0.48627,1.82376 1,4c0.45953,1.9465 1,3 1,5c0,1 0,1 0,2c0,1 -0.70709,2.29291 0,3c0.70709,0.70709 1,1 1,2c0,1 0,2 0,3c0,1 0,1 0,3c0,2 1,4 1,6c0,2 0,5 -1,7c-1,2 -3.4588,2.69345 -4,4c-0.38269,0.92389 -1,2 -2,2c-1,0 -2,1 -3,1c-1,0 -2,0 -4,0c-1,0 -1,0 -3,-1c-2,-1 -5.31,-1.33749 -8,-3c-2.40601,-1.487 -5.90778,-3.49622 -10,-4c-2.97754,-0.36655 -6.87854,-1.49347 -10,-2c-3.94836,-0.64072 -9,0 -13,0c-5,0 -10,0 -16,0c-6,0 -10.95331,-0.49902 -19,-1c-4.99036,-0.3107 -10.92578,-0.49756 -16,-1c-4.97565,-0.49268 -8,0 -11,0c-3,0 -5,0 -7.00003,0c-1,0 -3,0 -5,0c-3,0 -5,0 -8,0c-5,0 -9,0 -15,0c-6,0 -13,0 -19,0c-6,0 -11,0 -16,0c-5,0 -7.87857,0.49347 -11,1c-2.96127,0.48056 -3.69345,1.4588 -5,2c-0.92389,0.38269 -2,2 -2,3c0,1 -1,2 -1,3c0,1 -1,2 -1,4c0,2 0,3 0,5c0,1 0.29291,1.29291 1,2c0.70709,0.70709 1.1731,2.85272 2,4c1.30746,1.814 1.1731,3.85272 2,5c1.30746,1.814 2,3 4,5c2,2 2.85272,4.1731 4,5c1.814,1.30746 3.186,1.69254 5,3c2.29453,1.65381 3.5387,3.60645 6,5c3.58792,2.03146 8.01947,2.60583 12,3c5.07422,0.50244 11.02386,1.42264 18,2c6.06204,0.50171 11.02206,0.83704 19,2c6.01913,0.87741 13.91574,3.42648 23.00003,5c7.94397,1.37601 17,3 24,4c7,1 13.88733,3.37668 20,5c4.92822,1.30875 10.90778,1.49622 15,2c5.95502,0.73309 10.01947,0.60583 14,1c5.07422,0.50244 9,1 14,1c2,0 6,0 9,-1c3,-1 6.07843,-0.78986 9,-2c2.06586,-0.85571 4.31024,-2.71899 7,-6c2.28589,-2.78833 3.49292,-6.23401 6,-11c1.67859,-3.19098 2.94379,-8.07645 7,-11c2.56537,-1.84903 5.18604,-3.69254 7,-5c2.29456,-1.65381 3.69342,-3.4588 5,-4c0.92389,-0.38269 1,-2 2,-2c0,0 -0.38269,-0.07611 0,-1c1.0824,-2.61313 2,-3 3,-4c1,-1 0.82373,-2.48627 3,-3c0.97327,-0.22977 2.58582,0.41422 4,-1c0.70709,-0.70709 2.05353,-0.5405 4,-1c2.17627,-0.51373 2.82373,-2.48627 5,-3c1.94647,-0.4595 3,-1 5,-2c2,-1 4,-1 6,-1c2,0 6,0 10,0c3,0 6.97736,0.09543 11,1c4.97479,1.11865 8.92578,2.49756 14,3c2.98541,0.29562 5.82373,1.48627 8,2c0.97327,0.22977 2.22833,-1.14804 5,0c1.30658,0.5412 2,3 3,4l2,1l1,1l1,1" id="svg_1" stroke="#00bf00" fill="none"/>
 </g>

</svg>
