<svg version="1.0" xmlns="http://www.w3.org/2000/svg"
 width="1000.000000pt" height="746.000000pt" viewBox="0 0 1000.000000 746.000000"
 preserveAspectRatio="xMidYMid meet">

<g id="mordorSVG" transform="translate(0.000000,746.000000) scale(0.100000,-0.100000)"
fill="#CF7123" stroke="none">
<path d="M2772 7430 c0 -14 2 -19 5 -12 2 6 2 18 0 25 -3 6 -5 1 -5 -13z"/>
<path d="M2026 7040 c3 -201 7 -382 10 -402 5 -35 4 -38 -20 -38 -16 0 -39 13
-61 35 l-35 36 0 -180 0 -179 44 -26 c67 -39 92 -120 63 -206 -16 -47 -48 -48
-62 -2 -5 17 -12 32 -15 32 -32 0 -43 -245 -15 -300 17 -34 33 -39 125 -42
l65 -3 0 -65 c0 -37 -4 -64 -10 -64 -5 1 -22 4 -37 8 l-28 6 0 -65 c0 -36 18
-151 40 -261 51 -250 51 -292 1 -454 l-39 -125 36 -5 37 -5 3 -163 c3 -182 3
-181 -62 -113 -17 17 -33 31 -38 31 -4 0 -8 -202 -8 -450 l0 -450 -40 0 -40 0
-2 -287 -3 -288 -42 -3 -43 -3 0 -296 0 -295 -35 -47 c-32 -45 -34 -53 -37
-136 l-3 -89 -58 -34 -57 -34 -45 36 -45 37 -77 -62 c-43 -34 -82 -66 -86 -69
-5 -4 1 -40 13 -81 25 -84 29 -78 -73 -130 -55 -28 -58 -29 -88 -13 -17 8 -33
14 -35 12 -2 -2 -6 -31 -10 -64 -6 -55 -36 -127 -84 -206 l-20 -33 0 467 0
467 45 3 45 3 -32 35 c-17 19 -65 69 -105 111 l-73 77 -104 -112 -104 -111 49
-3 49 -3 0 -482 0 -481 -35 -36 c-19 -19 -140 -222 -270 -450 -226 -398 -237
-415 -273 -427 -48 -17 -96 -72 -112 -128 -7 -25 -16 -47 -20 -50 -3 -2 -26
31 -51 73 -24 42 -45 70 -46 62 -9 -49 -71 -515 -69 -517 1 -2 2250 -2 4996
-1 l4994 3 -250 199 c-137 109 -266 217 -287 240 -55 59 -130 167 -190 271
-28 49 -84 132 -124 182 -83 107 -139 202 -162 277 -12 41 -47 91 -146 214
l-130 161 -98 52 c-54 28 -100 49 -103 47 -2 -3 11 -41 29 -87 29 -71 39 -86
81 -114 65 -44 110 -146 127 -288 13 -105 16 -111 89 -201 26 -32 13 -23 -50
34 l-86 77 -27 112 -27 112 -73 81 c-65 72 -80 96 -130 214 -39 92 -68 144
-93 170 -49 50 -94 121 -134 212 -79 183 -68 169 -261 335 l-179 155 0 -60 c0
-77 29 -164 87 -260 51 -86 49 -84 -41 24 -36 44 -76 103 -90 132 -26 54 -56
180 -56 236 -1 26 -45 101 -195 333 -106 165 -302 486 -434 714 l-241 414 0
140 0 139 -62 85 -63 84 -5 -243 c-3 -134 -8 -236 -12 -228 -5 8 -28 76 -53
150 l-45 134 0 153 0 153 -36 71 -35 71 -41 -6 c-73 -12 -74 -14 -82 -128 -20
-323 -21 -299 18 -511 34 -185 36 -203 26 -275 l-11 -77 69 -193 c61 -167 80
-209 147 -313 l78 -120 -5 -137 c-5 -129 -3 -146 28 -286 20 -88 39 -153 47
-158 8 -4 51 -37 96 -74 99 -79 159 -152 212 -259 33 -67 44 -104 64 -230 14
-82 27 -159 30 -171 4 -16 306 -308 347 -335 10 -7 41 -249 36 -284 -2 -11
-23 31 -48 95 l-45 115 -143 127 c-79 70 -165 146 -192 170 l-50 43 -12 134
c-11 127 -15 142 -63 258 l-51 123 -169 127 c-186 142 -173 124 -221 298 -29
106 -74 359 -74 415 0 36 -3 40 -54 68 -138 79 -240 263 -292 527 -17 83 -17
86 7 182 21 86 24 121 24 283 0 200 -13 275 -72 439 -26 71 -31 77 -119 150
-87 72 -279 199 -314 208 -13 4 -33 -32 -92 -164 -255 -569 -321 -713 -325
-709 -2 2 25 122 60 267 36 145 68 279 72 296 l7 33 -69 -26 c-37 -14 -68 -26
-69 -27 -1 -1 -6 -20 -11 -42 -6 -22 -60 -212 -121 -421 l-110 -382 -141 -306
c-139 -302 -142 -308 -175 -467 -33 -158 -42 -179 -78 -179 -38 0 -125 -140
-202 -324 -9 -22 -18 -37 -21 -34 -3 2 -2 48 2 101 l6 97 92 132 c56 82 94
146 97 166 4 31 -3 26 -117 -88 -98 -98 -125 -131 -140 -172 -96 -267 -154
-391 -282 -595 -72 -114 -134 -214 -138 -222 -4 -7 -31 -100 -59 -206 l-51
-193 -94 -80 c-52 -45 -99 -79 -103 -76 -4 3 -8 146 -8 319 l0 314 46 3 46 3
-103 109 -104 109 -103 -109 -102 -109 45 -3 45 -3 0 -300 c0 -245 -2 -300
-13 -297 -8 2 -44 37 -81 78 l-68 75 4 64 3 65 -48 15 -48 15 6 105 6 106 -38
26 c-36 24 -42 36 -96 191 -53 154 -57 171 -57 257 l0 91 45 0 45 0 0 132 c0
109 -3 135 -17 150 -16 18 -17 18 -45 -9 -15 -14 -30 -25 -32 -22 -2 2 -8 54
-13 114 l-9 110 37 56 38 56 -69 33 -70 32 0 264 0 264 -40 0 -40 0 0 450 c0
248 -4 450 -8 450 -4 0 -26 -18 -47 -40 -21 -22 -43 -40 -47 -40 -5 0 -7 73
-6 163 l3 162 38 3 c34 3 37 6 31 25 -58 181 -74 246 -74 301 0 33 18 149 40
256 23 113 40 223 40 263 l0 67 -27 -6 c-16 -4 -32 -7 -38 -8 -6 0 -10 27 -10
64 l0 65 65 3 c133 5 140 15 139 194 -1 68 -4 134 -9 148 -7 24 -7 24 -16 -9
-24 -87 -84 -53 -84 48 0 65 20 105 74 146 l36 27 0 173 0 173 -34 -34 c-19
-19 -39 -34 -45 -34 -8 0 -11 101 -11 347 0 191 -4 343 -8 338 -5 -6 -20 -58
-35 -117 -65 -265 -178 -481 -279 -534 -31 -16 -85 -18 -121 -5 -101 39 -204
264 -266 583 -17 84 -32 162 -35 173 -3 11 -3 -144 0 -345z"/>
<path d="M2317 7181 c-43 -22 -197 -143 -194 -153 5 -15 177 -146 207 -157 82
-28 133 -11 256 89 43 35 81 65 84 68 3 2 -2 7 -10 12 -9 5 -47 34 -85 66
-115 94 -182 114 -258 75z m99 -88 c10 -34 14 -70 10 -94 -7 -44 -26 -89 -37
-89 -14 0 -40 84 -41 130 0 52 26 125 42 115 5 -3 17 -31 26 -62z"/>
</g>
</svg>
